<svg xmlns="http://www.w3.org/2000/svg" viewBox="0 0 612 792"><defs><style>.cls-1{fill:#442515;}.cls-2{fill:#87421e;}.cls-3{fill:#cb812a;}.cls-4{fill:#dda627;}.cls-5{fill:#eeba46;}</style></defs><title>tracingSoT-02</title><g id="Layer_4" data-name="Layer 4"><ellipse class="cls-1" cx="435.7" cy="750.22" rx="222.51" ry="91.98" transform="translate(-172.83 131.87) rotate(-14.39)"/><ellipse class="cls-2" cx="434.1" cy="745.86" rx="200.14" ry="82.73" transform="translate(-171.79 131.33) rotate(-14.39)"/><ellipse class="cls-3" cx="380.15" cy="745.86" rx="133.06" ry="55" transform="translate(-173.49 117.92) rotate(-14.39)"/><ellipse class="cls-4" cx="491.8" cy="738.4" rx="133.06" ry="55" transform="translate(-168.13 145.44) rotate(-14.39)"/><ellipse class="cls-4" cx="312.11" cy="750.75" rx="55.14" ry="22.8" transform="translate(-176.84 101.16) rotate(-14.39)"/><ellipse class="cls-5" cx="299.09" cy="750.22" rx="34.26" ry="14.16" transform="translate(-177.12 97.91) rotate(-14.39)"/><ellipse class="cls-5" cx="503.53" cy="720.7" rx="79.17" ry="36.6" transform="translate(-163.36 147.81) rotate(-14.39)"/><ellipse class="cls-4" cx="313.16" cy="749.68" rx="34.46" ry="14.25" transform="translate(-176.54 101.39) rotate(-14.39)"/><ellipse class="cls-4" cx="489.44" cy="735.46" rx="86.15" ry="35.61" transform="translate(-167.47 144.76) rotate(-14.39)"/></g></svg>