<svg xmlns="http://www.w3.org/2000/svg" viewBox="0 0 612 792"><defs><style>.cls-1{fill:#cb812a;}.cls-2{fill:#dda627;}.cls-3{fill:#8c9c3e;}.cls-4{fill:#87421e;}.cls-5,.cls-7,.cls-8,.cls-9{fill:none;stroke-miterlimit:10;}.cls-5{stroke:#eeba46;}.cls-5,.cls-7,.cls-9{stroke-width:5px;}.cls-6{fill:#442515;}.cls-7,.cls-8{stroke:#dda627;}.cls-8{stroke-width:5.1px;}.cls-9{stroke:#87421e;}</style></defs><title>tracingSoT</title><g id="basebldg_pillars" data-name="basebldg+pillars"><polygon class="cls-1" points="130.89 510.1 143.55 548.54 199.65 527.21 186.21 489.34 157.11 490.58 130.89 510.1"/><polygon class="cls-1" points="104.85 702.49 84.13 711.3 33.4 543.35 47.63 537.27 104.85 702.49"/><polygon class="cls-1" points="563.18 535.05 536.71 544.6 472.95 375.64 488.39 369.06 563.18 535.05"/><polygon class="cls-2" points="631.37 509.43 592.52 523.46 501.11 281.25 526.72 271.58 631.37 509.43"/><path class="cls-1" d="M73.27,612.08s10.25-7.45-2.25-6.67"/><path class="cls-1" d="M54.73,612.32s-9.34,8.55,3,6.37"/><path class="cls-1" d="M53.73,555.45s8.77-6.37-1.92-5.71"/><path class="cls-1" d="M37.56,556.65s-8,7.31,2.55,5.45"/><path class="cls-1" d="M520.2,441.7s10.24-7.45-2.26-6.66"/><path class="cls-1" d="M499.57,443.66s-9.34,8.55,3,6.37"/><path class="cls-1" d="M495.8,387.54s8.77-6.37-1.93-5.7"/><path class="cls-1" d="M477.93,388.23s-8,7.32,2.55,5.45"/><path class="cls-1" d="M542.56,492s10.24-7.44-2.26-6.66"/><path class="cls-1" d="M517.93,493.94s-9.35,8.55,3,6.37"/><path class="cls-2" d="M567.81,371s14.92-10.84-3.28-9.7"/><path class="cls-2" d="M536.77,373.87s-13.61,12.45,4.35,9.27"/><path class="cls-2" d="M430,432.91l55.26,129.87L377.07,599.41,325.44,467.15S357.48,449.44,430,432.91Z"/><polygon class="cls-2" points="243.79 653.6 199.49 526.52 135.76 549.7 97.43 567.97 135.43 688.05 243.79 653.6"/><polygon class="cls-2" points="318.87 447.02 377.06 599.41 241.22 649.1 188.64 496.66 318.87 447.02"/><path class="cls-2" d="M316.93,443.66l-6.57-20.48s-76.05,16.29-129.76,50.56c0,0,8,21.92,7,20.09C221.53,481.45,305,450.85,316.93,443.66Z"/><circle class="cls-2" cx="215.37" cy="414.75" r="63.22"/><circle class="cls-2" cx="249.85" cy="399.99" r="63.22"/><path class="cls-2" d="M293.2,354s-22.71-20.9-93.24-39.86c0,0-50.3,66.09-47.81,100.63"/><path class="cls-2" d="M536.17,298.68s14.92-10.84-3.29-9.7"/><path class="cls-2" d="M507.74,298.54s-13.61,12.45,4.36,9.27"/><circle class="cls-2" cx="199.07" cy="310.82" r="4.86"/><circle class="cls-2" cx="196.33" cy="303.37" r="3.85"/><circle class="cls-2" cx="194.21" cy="297.8" r="2.94"/><path class="cls-2" d="M348,397.68a12.2,12.2,0,1,0-23.07,7.92"/><circle class="cls-2" cx="331.09" cy="389.33" r="2.88"/><circle class="cls-2" cx="329.47" cy="384.92" r="2.27"/><circle class="cls-2" cx="328.22" cy="381.63" r="1.74"/><path class="cls-2" d="M132.12,503.26a26.13,26.13,0,0,1,49.42-17l6.1,3.52S156,493.74,130.89,510.1Z"/><path class="cls-2" d="M160.76,470.94a12.2,12.2,0,0,0-23.07,7.93"/><circle class="cls-2" cx="143.89" cy="462.59" r="2.88"/><circle class="cls-2" cx="142.26" cy="458.18" r="2.27"/><circle class="cls-2" cx="141.01" cy="454.89" r="1.74"/><path class="cls-2" d="M528.28,277.27s14.93-10.85-3.28-9.71"/><path class="cls-2" d="M499.86,277.12s-13.61,12.45,4.35,9.28"/><path class="cls-1" d="M488.56,370.93s8.4-6.1-1.85-5.46"/><path class="cls-1" d="M471.42,371.6s-7.66,7,2.45,5.22"/><path class="cls-3" d="M47.31,537.91s8.4-6.1-1.84-5.46"/><path class="cls-1" d="M31.82,539.06s-7.65,7,2.45,5.22"/><path class="cls-2" d="M522.32,265.66s-5.78-10.48-15.5-7.57c-6.45,1.93-9.76,9.12-7.57,15.49,0,0-.4,3.73-3.73,8.9-2.11,3.26,11.4.18,22.61-5.21.88-.43,7-3.53,7.85-3.93,5.27-2.56,5.31-5.52,5.31-5.52A39,39,0,0,1,522.32,265.66Z"/><circle class="cls-2" cx="505.45" cy="257.31" r="2.88"/><circle class="cls-2" cx="503.83" cy="252.9" r="2.27"/><circle class="cls-2" cx="502.57" cy="249.61" r="1.74"/><path class="cls-1" d="M484.62,363.53s-4-8-9.78-6.38c-3.8,1.09-5.44,6.23-3.78,11a17,17,0,0,1-1.8,6.37c-1.11,2.3,5.46,2.55,13.42-2.68.48-.32,4.88-1.77,5.36-2,3.06-1.62,2.12-4.27,2.12-4.27A23,23,0,0,1,484.62,363.53Z"/><circle class="cls-1" cx="474.03" cy="356.69" r="1.69"/><circle class="cls-1" cx="473.08" cy="354.1" r="1.34"/><circle class="cls-1" cx="472.34" cy="352.16" r="1.02"/><path class="cls-1" d="M43.26,530.38s-2.92-6.8-8.49-5.2c-3.7,1.06-5.29,6.05-3.68,10.72a16.52,16.52,0,0,1-1.75,6.19c-1.07,2.23,5.22,3.34,13-1.6.67-.43,4.74-2.72,5.21-3,3-1.57,1.51-4.9,1.51-4.9A16.65,16.65,0,0,1,43.26,530.38Z"/><circle class="cls-1" cx="33.98" cy="524.73" r="1.64"/><circle class="cls-1" cx="33.06" cy="522.21" r="1.3"/><circle class="cls-1" cx="32.34" cy="520.33" r="0.99"/><polygon class="cls-1" points="135.76 549.7 174.37 673.72 135.43 688.05 97.43 567.97 135.76 549.7"/><polygon class="cls-1" points="388.36 443.66 440.58 575.69 485.22 562.78 429.96 432.91 388.36 443.66"/><polygon class="cls-1" points="362.67 588.31 313.07 460.46 199.91 504.3 246.16 635.24 255.89 631.62 212.89 510.1 307.37 473.37 354.17 591.55 362.67 588.31"/><polygon class="cls-1" points="302.04 481.72 349.5 609.23 268.44 640.08 222.43 512.94 302.04 481.72"/><polygon class="cls-1" points="399.76 519.6 379.67 467.19 346.37 479.74 366.27 531.73 399.76 519.6"/><polygon class="cls-1" points="424.84 582.41 404.75 529.99 370.45 542.55 390.35 594.54 424.84 582.41"/><polygon class="cls-1" points="189.64 544.6 206.74 594.58 171.17 607.71 153.74 557.73 189.64 544.6"/><polygon class="cls-1" points="212.35 605.05 230.45 656.03 191.88 669.16 174.45 619.18 212.35 605.05"/><polygon class="cls-1" points="373.07 597.19 370.13 590.05 349.5 598.6 352.33 605.39 351.87 599.41 368.6 592.39 373.07 597.19"/><polygon class="cls-1" points="263.13 638.91 261.39 631.55 243.03 638.18 245.71 645.19 244.94 639.2 259.86 633.74 263.13 638.91"/><polygon class="cls-1" points="318.1 436.84 328.22 465.73 385.84 444.4 374.84 416.55 345.23 418.77 318.1 436.84"/><path class="cls-2" d="M319.33,430a26.12,26.12,0,1,1,49.41-17l6.1,3.52s-31.65,3.93-56.74,20.29Z"/><rect class="cls-4" x="37.7" y="542.01" width="3.29" height="11.95" rx="1.22" transform="translate(-177.45 43.17) rotate(-19.13)"/><rect class="cls-4" x="43.82" y="539.44" width="3.29" height="11.95" rx="1.22" transform="translate(-176.27 45.04) rotate(-19.13)"/><rect class="cls-4" x="478.66" y="374.08" width="3.29" height="11.95" rx="1.22" transform="translate(-98.04 178.44) rotate(-19.13)"/><rect class="cls-4" x="484.78" y="371.51" width="3.29" height="11.95" rx="1.22" transform="translate(-96.86 180.3) rotate(-19.13)"/><rect class="cls-1" x="507.74" y="285.55" width="3.29" height="11.95" rx="1.22" transform="translate(-71.07 204.72) rotate(-21.28)"/><rect class="cls-1" x="513.76" y="282.75" width="3.29" height="11.95" rx="1.22" transform="translate(-69.64 206.72) rotate(-21.28)"/><rect class="cls-1" x="519.82" y="280.01" width="3.29" height="11.95" rx="1.22" transform="translate(-71.78 243.84) rotate(-24.68)"/><rect class="cls-1" x="525.85" y="277.22" width="3.29" height="11.95" rx="1.22" transform="translate(-70.06 246.1) rotate(-24.68)"/><path class="cls-2" d="M384.91,449.15h0a2.75,2.75,0,0,1-3.54-1.57l-10.81-27.87c-.54-1.4-2.53-5.08,1.57-3.54h0a2.75,2.75,0,0,1,3.54,1.56l10.8,27.87A2.74,2.74,0,0,1,384.91,449.15Z"/><path class="cls-2" d="M330.91,467.85h0a2.76,2.76,0,0,0,1.76-3.45L323.44,436c-.47-1.43-1.24-5.54-3.45-1.76h0a2.75,2.75,0,0,0-1.76,3.45l9.23,28.43A2.76,2.76,0,0,0,330.91,467.85Z"/><path class="cls-2" d="M374.59,451.06h0a2.81,2.81,0,0,1-3.51-1.83l-10-29.58c-.5-1.49-2.4-5.43,1.68-3.59h0a2.82,2.82,0,0,1,3.51,1.83l10,29.58A2.81,2.81,0,0,1,374.59,451.06Z"/><path class="cls-2" d="M339.58,464.75h0a3,3,0,0,1-3.58-2.13l-10.75-32.56c-.54-1.64-2.54-6,1.62-3.83h0a3,3,0,0,1,3.58,2.12l10.75,32.56A3,3,0,0,1,339.58,464.75Z"/><path class="cls-2" d="M348.41,460.39h0a3,3,0,0,1-3.58-2.12L334.11,425.8c-.54-1.64-2.53-6,1.62-3.83h0a3,3,0,0,1,3.58,2.11L350,456.56A3,3,0,0,1,348.41,460.39Z"/><path class="cls-2" d="M365.19,454.57h0a2.89,2.89,0,0,1-3.54-2L351.4,421.53c-.51-1.56-2.44-5.71,1.66-3.7h0a2.89,2.89,0,0,1,3.54,2l10.25,31.06A2.88,2.88,0,0,1,365.19,454.57Z"/><path class="cls-2" d="M197.92,529.4h0a3.05,3.05,0,0,1-3.68-2.19l-12.07-33.9c-.61-1.71-2.78-6.24,1.47-4h0a3.08,3.08,0,0,1,3.69,2.19l12.06,33.91A3.05,3.05,0,0,1,197.92,529.4Z"/><path class="cls-2" d="M146.6,549.68h0c1.43-.46,2.13-2.32,1.54-4.11l-11.59-35.7c-.58-1.8-1.68-6.91-3.66-2.42h0c-1.43.46-2.13,2.31-1.54,4.11l11.59,35.7C143.52,549.06,145.17,550.15,146.6,549.68Z"/><path class="cls-2" d="M178.77,523.32h0a2.81,2.81,0,0,1-3.51-1.83l-10-29.58c-.5-1.49-2.4-5.42,1.68-3.59h0a2.82,2.82,0,0,1,3.51,1.83l10,29.58A2.81,2.81,0,0,1,178.77,523.32Z"/><path class="cls-2" d="M158.9,531.23h0a3,3,0,0,1-3.59-2.13l-10.74-32.56c-.54-1.64-2.54-6,1.61-3.84h0a3,3,0,0,1,3.59,2.13l10.74,32.56A3,3,0,0,1,158.9,531.23Z"/><polygon class="cls-2" points="192.79 515.09 142.26 534.38 146.6 549.68 197.89 531.35 192.79 515.09"/><polygon class="cls-5" points="371.06 587.42 347.32 597.33 351.5 608.23 375.95 598.38 371.06 587.42"/><polygon class="cls-5" points="262.51 628.7 240.76 636.61 243.95 648.51 266.39 639.67 262.51 628.7"/><polyline class="cls-5" points="426.62 580.47 405.33 527.41 367.95 541.65 388.36 595.59"/><polygon class="cls-1" points="135.41 540.96 130.65 541.51 94.82 560.9 97.43 567.97 133.64 550.71 138.32 548.97 135.41 540.96"/><line class="cls-5" x1="318.78" y1="445.25" x2="187.64" y2="495.67"/><polygon class="cls-5" points="211.39 604.17 229.71 657.22 191.12 672.05 173.2 618.99 211.39 604.17"/><path class="cls-5" d="M178.6,472.47s48.93-34.86,133.66-50.57"/><path class="cls-1" d="M200,314.12a258.58,258.58,0,0,1,45.47,14.67c-25.06.78-53,11.55-71.81,25.27,1.84-3.19,4.51-7.79,7.83-13.28C181.45,340.78,194.21,319.93,200,314.12Z"/><path class="cls-4" d="M345.73,611.38,318.13,537s-3.4-20.75-26.63-23.06-24.92-3.83-24.92-3.83l42.76,114.67,36.39-13.4"/><path class="cls-4" d="M273.61,638.46l-28.15-74.18s-11.08-17.86,4.89-34.89,16.25-19.28,16.25-19.28l43.23,114.5-36.22,13.85"/><path class="cls-4" d="M397.69,523.38l-10.4-28a11,11,0,0,0-10-8.69c-8.76-.87-9.4-1.45-9.4-1.45L384,528.43l13.72-5"/><path class="cls-4" d="M370.5,533.58l-10.61-28a11,11,0,0,1,1.85-13.15c6-6.42,6.12-7.27,6.12-7.27l16.3,43.16-13.66,5.22"/><path class="cls-4" d="M422.52,583,411,553.69a11.54,11.54,0,0,0-10.75-8.94c-9.23-.74-9.92-1.33-9.92-1.33l17.86,45.17,14.34-5.6"/><path class="cls-4" d="M394.11,594.29l-11.74-29.21A11.54,11.54,0,0,1,384,551.2c6.2-6.88,6.29-7.78,6.29-7.78l18.05,45.09-14.27,5.78"/><polygon class="cls-5" points="365.14 534.55 343.73 479.62 381.11 465.37 402.4 520.43 365.14 534.55"/><path class="cls-4" d="M225.5,661l-10.16-29.67a11.5,11.5,0,0,0-10.29-9.38c-9.16-1.15-9.81-1.77-9.81-1.77L211,665.91,225.5,661"/><path class="cls-4" d="M196.72,671l-10.38-29.6a11.48,11.48,0,0,1,2.29-13.73c6.48-6.57,6.61-7.46,6.61-7.46l15.94,45.68L196.72,671"/><path class="cls-4" d="M203.2,598l-9.06-27.34A11.32,11.32,0,0,0,184,561.45c-9-1.13-9.66-1.74-9.66-1.74l15.5,45L203.2,599"/><path class="cls-4" d="M175.8,609.72l-10.21-29.15a11.3,11.3,0,0,1,2.25-13.52c6.38-6.46,6.51-7.34,6.51-7.34l15.69,45-14.24,5"/><polygon class="cls-5" points="190.35 542.08 208.66 595.14 170.08 609.96 152.15 556.91 190.35 542.08"/><path class="cls-6" d="M418.11,468s-7.8,10.11-5.2,16.89l10.93,28.5L442.7,506,433,478.66S431.25,471.77,418.11,468Z"/><path class="cls-6" d="M440.8,527.41s-7.61,9.86-5.08,16.48,11.55,30.47,11.55,30.47l19.3-7.21-11.3-29.34S453.61,531.09,440.8,527.41Z"/><path class="cls-2" d="M126.41,581.08s11.09,2.43,15.57,15.73c4.41,13.07,6.78,23,6.78,23L131.7,628.7s-5.54-17-8.41-26.16S126.41,581.08,126.41,581.08Z"/><path class="cls-2" d="M144.81,639s11.4,2.5,16,16.17c4.52,13.44,7,23.66,7,23.66l-17.54,9.13s-5.7-17.5-8.65-26.89S144.81,639,144.81,639Z"/><line class="cls-5" x1="316.93" y1="454.69" x2="194.91" y2="501.28"/><line class="cls-5" x1="438.29" y1="576.54" x2="385.84" y2="444.4"/><polygon class="cls-7" points="430.44 453.24 449.86 504.3 423.52 514.53 403.92 461.73 430.44 453.24"/><polygon class="cls-8" points="453.22 513.87 475.21 565.48 446.57 576.55 426.38 523.15 453.22 513.87"/><polygon class="cls-9" points="133.03 567.45 149.76 618.88 126.08 631.55 109.47 577.69 133.03 567.45"/><polygon class="cls-9" points="152.57 627.34 169.29 678.77 145.62 691.44 129 639.59 152.57 627.34"/><polygon class="cls-2" points="133.22 540.68 142.11 537.75 143.51 547.44 138.37 550.22 133.22 540.68"/><line class="cls-5" x1="176.37" y1="674.72" x2="133.03" y2="540.74"/></g><g id="base"><path class="cls-1" d="M311.94,411.94s-75.8,4.74-136.57,51.27l-9-8.52c8.55-8.76,69.77-49.08,146.7-53.7Z"/><circle class="cls-2" cx="178.31" cy="460.37" r="4.46"/><circle class="cls-2" cx="185.85" cy="455.91" r="4.46"/><circle class="cls-2" cx="193.44" cy="451.45" r="4.46"/><circle class="cls-2" cx="200.9" cy="447.18" r="4.46"/><circle class="cls-2" cx="208.57" cy="443.14" r="4.46"/><circle class="cls-2" cx="215.95" cy="438.68" r="4.46"/><circle class="cls-2" cx="224.06" cy="435.19" r="4.46"/><circle class="cls-2" cx="232.1" cy="431.41" r="4.46"/><circle class="cls-2" cx="240.51" cy="428.61" r="4.46"/><circle class="cls-2" cx="248.76" cy="425.5" r="4.46"/><circle class="cls-2" cx="257.18" cy="422.85" r="4.46"/><circle class="cls-2" cx="265.57" cy="420.18" r="4.46"/><circle class="cls-2" cx="274.13" cy="418.03" r="4.46"/><circle class="cls-2" cx="282.68" cy="415.98" r="4.46"/><circle class="cls-2" cx="291.32" cy="414.75" r="4.46"/><circle class="cls-2" cx="300.1" cy="413.43" r="4.46"/><ellipse class="cls-2" cx="308.11" cy="411.92" rx="3.97" ry="3.76" transform="translate(-156.41 632.9) rotate(-78.65)"/></g></svg>